<svg width="9" height="11" viewBox="0 0 9 11" fill="none" xmlns="http://www.w3.org/2000/svg">
<path d="M4.5 0C5.69347 0 6.83807 0.474106 7.68198 1.31802C8.52589 2.16193 9 3.30653 9 4.5C9 6.363 7.58 8.315 4.8 10.4C4.71345 10.4649 4.60819 10.5 4.5 10.5C4.39181 10.5 4.28655 10.4649 4.2 10.4C1.42 8.315 0 6.363 0 4.5C0 3.30653 0.474106 2.16193 1.31802 1.31802C2.16193 0.474106 3.30653 0 4.5 0ZM4.5 3C4.10218 3 3.72064 3.15804 3.43934 3.43934C3.15804 3.72064 3 4.10218 3 4.5C3 4.89782 3.15804 5.27936 3.43934 5.56066C3.72064 5.84196 4.10218 6 4.5 6C4.89782 6 5.27936 5.84196 5.56066 5.56066C5.84196 5.27936 6 4.89782 6 4.5C6 4.10218 5.84196 3.72064 5.56066 3.43934C5.27936 3.15804 4.89782 3 4.5 3Z" fill="white"/>
</svg>
